<?xml version="1.0" encoding="UTF-8"?>
<svg id="Layer_1" xmlns="http://www.w3.org/2000/svg" version="1.1" xmlns:xlink="http://www.w3.org/1999/xlink" viewBox="0 0 408 207">
  <!-- Generator: Adobe Illustrator 29.2.1, SVG Export Plug-In . SVG Version: 2.1.0 Build 116)  -->
  <defs>
    <style>
      .st0 {
        fill: none;
      }

      .st1 {
        fill: #10ce50;
      }

      .st2 {
        clip-path: url(#clippath);
      }
    </style>
    <clipPath id="clippath">
      <rect class="st0" width="408" height="206.3"/>
    </clipPath>
  </defs>
  <g class="st2">
    <g>
      <path class="st1" d="M112,74.8c0,7.6-6.4,13.7-14.1,13.7h-14.9c-3.8,0-7-3.1-7-7v-13.8c0-3.8,3.1-7,7-7h12.8c9.4,0,16.3,4.5,16.2,14Z"/>
      <path class="st1" d="M117.5,130.3c0,10.2-7.4,15.2-19.1,15.2h-15.3c-3.8,0-7-3.1-7-6.9v-16.3c0-3.8,3.1-7,7-7h15.3c11.7,0,19.1,4.9,19.1,15Z"/>
      <path class="st1" d="M383,0H25C11.2,0,0,11.2,0,25v156.3c0,13.8,11.2,25,25,25h358c13.8,0,25-11.2,25-25V25c0-13.8-11.2-25-25-25ZM96.2,174.7h-48.5c-3.8,0-7-3.1-7-6.9V38.5c0-3.8,3.1-6.9,7-6.9h49.1c36.5,0,50.7,15.4,50.7,37.5s-6.8,24.6-20.1,30.2c18.3,5.1,27.3,17.8,27.3,33.6,0,26.7-17.4,42-58.5,42ZM282.6,174.5h-25.4c-2.3,0-4.5-1.3-5.7-3.3l-28-49.7c-2.2-3.9-7.6-4.5-10.6-1.1l-8.9,10.3c-2.2,2.5-3.4,5.7-3.4,9v28.6c0,3.6-2.9,6.5-6.5,6.5h-23.5c-3.6,0-6.5-2.9-6.5-6.5V38c0-3.6,2.9-6.5,6.5-6.5h23.5c3.6,0,6.5,2.9,6.5,6.5v33.8c0,6.1,7.7,8.8,11.5,4.1l34.1-41.8c1.2-1.5,3.1-2.4,5-2.4h24.1c5.5,0,8.5,6.5,4.9,10.7l-33.8,39.5c-1.8,2.1-2.1,5-.7,7.4l42.4,75.5c2.4,4.3-.7,9.7-5.7,9.7ZM355.6,119.7c0,37.6-18.3,53.5-47,54.9-2.6.1-5-1.2-6.3-3.5l-13.1-22.9c-2.3-4-.1-9.1,4.4-10.2,11.8-3,25.6-10.8,25.6-20.9v-20.2c0-3.8,3.1-7,7-7h22.6c3.8.1,6.9,3.2,6.9,7.1v22.7ZM363.6,61.7l-8.9,15.5c-1.7,3-4.9,4.9-8.3,4.9h-17.8c-3.4,0-6.6-1.9-8.3-4.9l-8.9-15.5c-1.7-3-1.7-6.7,0-9.7l8.9-15.5c1.7-3,4.9-4.9,8.3-4.9h17.8c3.4,0,6.6,1.9,8.3,4.9l8.9,15.5c1.7,3,1.7,6.7,0,9.7Z"/>
    </g>
  </g>
</svg>